<?xml version="1.0" standalone="yes"?>
<svg xmlns="http://www.w3.org/2000/svg" width="164" height="211">
<path style="fill:#000000; stroke:none;" d="M18 39C31.9533 29.1726 42.8625 18.3607 61 17.0895C86.1685 15.3255 119.768 29.5343 122.826 58C123.921 68.1851 120.557 77.0922 116 86C141.445 79.0405 156.412 49.0719 133.996 29.1852C113.34 10.8598 75.6439 13.9901 50 14C42.362 14.0029 26.5051 13.2264 20.5139 18.7276C16.004 22.8687 18 33.4697 18 39M57 185L57 168C47.3281 171.147 37.7621 174.716 28 177.576C24.413 178.626 18.482 179.303 18.2569 184.055C17.5943 198.049 45.6791 194.517 54 193.424C86.6192 189.141 124.001 198.458 147.471 168C151.335 162.985 153.739 157.164 154.996 151C166.118 96.4513 91.9406 91.8978 61 69.9568C36.2068 52.3751 60.3791 31.0013 81 27C74.9155 23.7652 66.6506 24.0491 60 24.8449C29.1034 28.5421 7.31533 61.2073 23.8796 90C42.9419 123.135 89.3063 117.397 113.906 142.093C133.898 162.165 107.862 184.039 87 184.961C77.0377 185.401 66.9724 185 57 185M18 96L18 139L47 131.116L56.2485 126.802L48 119.421L18 96M18 142L18 162L45 153.859L55.9722 149.298L57 131L18 142M18 164L18 178L45 169.859L55.9722 165.298L57 153L18 164z"/>
</svg>
