<?xml version="1.0" encoding="utf-8"?>
<svg viewBox="0 0 500 500" xmlns="http://www.w3.org/2000/svg">
  <g id="g8" transform="matrix(1.452255, 0, 0, -1.405749, -54.064802, 542.490739)" style="">
    <g id="g10" transform="scale(0.1)">
      <path d="m 1607.74,2559.98 c -12.46,62.77 -72.21,121.21 -154.22,103.29 -81.91,-17.97 -82.2,-94.39 -69.74,-157.22 0.7,-3.24 41.01,-173.02 64.72,-208.7 23.67,-35.78 58.04,-103.67 115.68,-84.33 38.11,12.8 60.56,80.68 69.58,129.69 9,49.01 -26.02,217.27 -26.02,217.27" style="fill:#f9aa78;fill-opacity:1;fill-rule:nonzero;stroke:none" id="path16"/>
      <path d="m 2651,2562.53 c 12.47,62.78 72.2,121.2 154.21,103.27 81.99,-17.94 90.01,-96.59 77.59,-159.35 -0.69,-3.33 -44.26,-160.44 -64.7,-208.81 -16.82,-39.84 -62.61,-109.98 -122.12,-85.45 -37.2,15.35 -61.98,84.07 -71,133.08 -9,48.99 26.02,217.26 26.02,217.26" style="fill:#f9aa78;fill-opacity:1;fill-rule:nonzero;stroke:none" id="path18"/>
      <path d="M 854.609,639.922 H 3397.37 c 0,0 -50.11,624.138 -133.53,717.678 -83.46,93.52 -719.1,302.62 -719.1,302.62 l -830.81,2.41 c 0,0 -668.84,-195.74 -714.528,-305.03 C 953.711,1248.31 854.609,639.922 854.609,639.922" style="fill:#42a3ab;fill-opacity:1;fill-rule:nonzero;stroke:none" id="path20"/>
      <path d="m 1857.94,1662.22 -13.78,0.04 h -0.01 l 13.78,-0.04 h 0.01" style="fill:#b8aa15;fill-opacity:1;fill-rule:nonzero;stroke:none" id="path22"/>
      <path d="M 1190.04,639.922 H 854.609 c 0,0 99.102,608.388 144.793,717.678 45.688,109.29 714.528,305.03 714.528,305.03 v 0 c 0,0 16.15,-39.9 42.36,-94.73 -186.06,-65.26 -396.53,-150.64 -421.48,-210.3 -45.67,-109.29 -144.77,-717.678 -144.77,-717.678 m 719.7,979.478 -65.58,42.86 13.78,-0.04 c 17,-12.33 37.1,-26.35 58.94,-40.53 -2.36,-0.75 -4.74,-1.52 -7.14,-2.29" style="fill:#31868f;fill-opacity:1;fill-rule:nonzero;stroke:none" id="path24"/>
      <path d="m 1803.8,1703.48 c 0,0 209.45,-171.74 326.93,-171.74 117.45,0 326.85,171.74 326.85,171.74 0,0 -88.63,103.16 -27.53,238.68 61.08,135.48 -681.25,124.39 -594.95,0 86.26,-124.41 -31.3,-238.68 -31.3,-238.68" style="fill:#d5835c;fill-opacity:1;fill-rule:nonzero;stroke:none" id="path26"/>
      <path d="m 1803.8,1703.48 v 0 0 0" style="fill:#deab10;fill-opacity:1;fill-rule:nonzero;stroke:none" id="path28"/>
      <path d="m 2021.42,1562.7 c -105.93,49.41 -217.51,140.69 -217.62,140.78 v 0 c 0,0 47.46,46.13 59.94,111.68 84.86,-47.56 178.12,-77.87 266.95,-78.2 0.71,0 1.43,0 2.14,0 0.64,0 1.28,0 1.92,0 0.04,0 0.09,0 0.14,0 0.08,0 0.16,0 0.25,0 97.2,0.41 190.14,26.95 272.51,71.99 -209.25,-119.51 -238.96,-87.21 -288.94,-123.64 -50.29,-36.63 -81.67,-79.67 -97.29,-122.61" style="fill:#bd694c;fill-opacity:1;fill-rule:nonzero;stroke:none" id="path30"/>
      <path d="m 2544.74,1660.22 -119.47,0.35 65.04,40.93 54.43,-41.28 m -700.59,2.04 -130.22,0.37 48.54,53.01 81.68,-53.38" style="fill:#b8aa15;fill-opacity:1;fill-rule:nonzero;stroke:none" id="path32"/>
      <path d="m 2267.86,1238.92 c -18.01,0 -123.99,184.25 -137.3,184.25 -26.84,0 -101.91,-164.08 -141.72,-164.08 -1.56,0 -3.06,0.25 -4.5,0.77 -83.7,30.17 -175.83,198.75 -228.05,308.04 55.1,19.32 108.09,36.89 153.45,51.5 l 220.82,-144.32 294.71,185.49 119.47,-0.35 c 0,0 -147.63,-391.89 -276.37,-421.25 -0.16,-0.03 -0.33,-0.05 -0.51,-0.05" style="fill:#31868f;fill-opacity:1;fill-rule:nonzero;stroke:none" id="path34"/>
      <path d="m 1844.16,1662.26 -130.23,0.37 130.22,-0.37 h 0.01" style="fill:#878916;fill-opacity:1;fill-rule:nonzero;stroke:none" id="path36"/>
      <path d="m 1756.29,1567.9 c -26.21,54.83 -42.36,94.73 -42.36,94.73 v 0 l 130.23,-0.37 65.58,-42.86 c -45.36,-14.61 -98.35,-32.18 -153.45,-51.5" style="fill:#256e78;fill-opacity:1;fill-rule:nonzero;stroke:none" id="path38"/>
      <path d="m 2731.04,3032.27 c 0,272.39 -168.75,545.69 -615.52,545.69 -446.78,0 -609,-299.08 -609,-571.49 0,-14.3 -1.37,-755 85.38,-925.09 86.74,-170.03 325.53,-343.62 538.79,-344.42 233.22,-0.92 442.79,148.89 540.71,344.42 97.93,195.6 59.64,950.89 59.64,950.89" style="fill:#f9aa78;fill-opacity:1;fill-rule:nonzero;stroke:none" id="path40"/>
      <path d="m 2651.51,2536.12 c -278.37,0 -560.65,376.76 -711.41,423.69 -5.68,1.76 -11.45,2.58 -17.29,2.58 -39.46,0 -82.33,-37.52 -125.32,-75.03 -17.56,-15.33 -35.15,-30.65 -52.53,-43.42 50.23,39.04 103.72,88.81 141.42,168.44 v 0 c 4.74,0.21 9.49,0.31 14.18,0.31 276.78,0 455.83,-353.11 762.99,-372.76 -6.79,-39.72 -8.78,-74.18 -7.76,-103.78 -1.44,-0.02 -2.84,-0.03 -4.28,-0.03" style="fill:#e79769;fill-opacity:1;fill-rule:nonzero;stroke:none" id="path42"/>
      <path d="m 2136,1736.97 c 0.01,0 0.03,0 0.04,0 -0.02,0 -0.02,0 -0.04,0 m 0.56,0 c 0.1,0 0.2,0 0.3,0 -0.1,0 -0.2,0 -0.3,0 m 0.57,0 c 118.55,0.97 230.05,41.7 324.3,106.52 -70.64,-31.07 -147.49,-49.07 -227.26,-49.07 -0.75,0 -1.49,0 -2.25,0 -213.24,0.8 -452.05,174.36 -538.78,344.45 -48,94.13 -69.02,363 -78.22,586.81 14.14,29.47 42.32,52.81 76.37,78.21 10.38,-210 31.71,-441.63 75.54,-527.57 86.75,-170.06 325.52,-343.65 538.79,-344.46 0.69,0 1.37,0 2.06,0 121.88,0 237.15,41.28 333.38,108.54 3.43,1.62 6.79,3.38 10.2,5 0.92,1.55 2.1,2.94 3.01,4.49 v 0 0 C 2551.41,1871.76 2355.06,1738.7 2137.13,1736.97" style="fill:#e79769;fill-opacity:1;fill-rule:nonzero;stroke:none" id="path44"/>
      <path d="m 2638.92,2039.42 c 5.09,3.54 10.35,6.82 15.35,10.47 -4.37,-3.22 -8.77,-6.38 -13.21,-9.49 -0.71,-0.33 -1.43,-0.66 -2.14,-0.98" style="fill:#e79769;fill-opacity:1;fill-rule:nonzero;stroke:none" id="path46"/>
      <path d="m 2641.06,2040.4 c 4.44,3.11 8.84,6.27 13.21,9.49 v 0 c -0.91,-1.55 -2.09,-2.94 -3.01,-4.49 -3.41,-1.62 -6.77,-3.38 -10.2,-5" style="fill:#d8865c;fill-opacity:1;fill-rule:nonzero;stroke:none" id="path48"/>
      <path d="m 2132.83,1736.96 c -0.71,0 -1.43,0 -2.14,0 -88.83,0.33 -182.09,30.64 -266.95,78.2 v 0 c 84.86,-47.56 178.12,-77.87 266.95,-78.2 v 0 c 0.7,0 1.44,0 2.13,0 0.64,0 1.29,0 1.93,0 -0.64,0 -1.28,0 -1.92,0 m 2.06,0 c 0.08,0 0.17,0 0.25,0 -0.09,0 -0.17,0 -0.25,0" style="fill:#b05d42;fill-opacity:1;fill-rule:nonzero;stroke:none" id="path50"/>
      <path d="m 2132.82,1736.96 c -0.69,0 -1.43,0 -2.13,0 0.7,0 1.41,0 2.11,0 1.07,0 2.14,0 3.2,0.01 -0.28,-0.01 -0.57,-0.01 -0.86,-0.01 -0.08,0 -0.17,0 -0.25,0 -0.05,0 -0.1,0 -0.14,0 -0.64,0 -1.29,0 -1.93,0 m 3.22,0.01 c 0.17,0 0.34,0 0.52,0 -0.18,0 -0.35,0 -0.52,0 m 0.82,0 c 0.08,0 0.19,0 0.27,0 -0.09,0 -0.18,0 -0.27,0" style="fill:#e79769;fill-opacity:1;fill-rule:nonzero;stroke:none" id="path52"/>
      <path d="m 2132.8,1736.96 c -0.7,0 -1.41,0 -2.11,0 v 0 c -213.26,0.8 -452.05,174.39 -538.79,344.42 -47.24,92.63 -68.35,354.49 -77.78,576.09 0.01,0 0.01,0 0.01,-0.01 21.74,-237.79 72.6,-241.26 75.55,-241.26 0.09,0 0.13,0 0.13,0 0,0 4.92,166.34 15.79,276.27 1.19,12.03 4.41,22.99 9.32,33.21 9.2,-223.81 30.22,-492.68 78.22,-586.81 86.73,-170.09 325.54,-343.65 538.78,-344.45 0.76,0 1.5,0 2.25,0 79.77,0 156.62,18 227.26,49.07 -94.25,-64.82 -205.75,-105.55 -324.3,-106.52 -0.08,0 -0.19,0 -0.27,0 -0.1,0 -0.2,0 -0.3,0 -0.18,0 -0.35,0 -0.52,0 -0.01,0 -0.03,0 -0.04,0 -1.06,-0.01 -2.13,-0.01 -3.2,-0.01" style="fill:#d8865c;fill-opacity:1;fill-rule:nonzero;stroke:none" id="path54"/>
      <path d="m 2830.99,3097.23 c -54.98,299.87 -299.88,517.29 -700.3,514.81 -399.25,-2.51 -661.68,-247.22 -714.14,-524.79 -22.49,-118.87 -39.86,-344.87 -30.61,-479.56 67.58,55.58 95.46,62.81 128.19,49.77 22.39,-244.93 75.68,-241.26 75.68,-241.26 0,0 4.92,166.34 15.79,276.27 10.88,109.89 190.82,129.86 280.78,319.91 284.9,12.39 464.8,-352.47 777.17,-372.45 -30.89,-180.58 37.51,-252.42 37.51,-252.42 0,0 7.25,149.18 32.46,219.93 21.97,61.64 87.49,61.64 119.88,34.91 15.55,112.18 7.97,289.21 -22.41,454.88" style="fill:#311b19;fill-opacity:1;fill-rule:nonzero;stroke:none" id="path56"/>
      <path d="m 2853.4,2642.35 c -9.37,7.68 -21.55,12.82 -34.56,15.26 0,0.13 0,0.25 0.01,0.38 13.05,-2.42 25.18,-7.91 34.55,-15.64 0,0.01 0,0.03 0,0.04 v 0 c 0,-0.01 0,-0.03 0,-0.04" style="fill:#fabc91;fill-opacity:1;fill-rule:nonzero;stroke:none" id="path58"/>
      <path d="m 1926.77,3587.87 c 0.11,0.02 0.21,0.05 0.33,0.08 -0.11,-0.03 -0.23,-0.06 -0.33,-0.08 m 0.38,0.09 c 63.04,15.18 131.03,23.62 203.54,24.08 -72.49,-0.46 -140.51,-8.91 -203.54,-24.08" style="fill:#fddc1f;fill-opacity:1;fill-rule:nonzero;stroke:none" id="path60"/>
      <path d="m 2853.4,2642.35 c -9.37,7.73 -21.5,13.22 -34.55,15.64 2.41,103.75 -7.49,231.35 -29.8,353.01 -54.68,298.21 -297.11,514.84 -693.56,514.84 -2.24,0 -4.5,-0.01 -6.75,-0.02 -306.06,-1.9 -531.26,-146.36 -643.56,-338.65 71.45,185.36 240.16,342.44 481.59,400.7 0.1,0.02 0.22,0.05 0.33,0.08 0.01,0 0.03,0.01 0.05,0.01 63.03,15.17 131.05,23.62 203.54,24.08 v 0 c 2.28,0.01 4.53,0.01 6.79,0.01 396.39,0 638.84,-216.65 693.51,-514.82 20.14,-109.85 30.26,-224.7 30.26,-322.33 0,-49.58 -2.61,-94.72 -7.85,-132.51 0,-0.01 0,-0.03 0,-0.04" style="fill:#492c25;fill-opacity:1;fill-rule:nonzero;stroke:none" id="path62"/>
      <path d="m 1589.68,2416.2 c -2.95,0 -53.81,3.47 -75.55,241.26 -8.86,3.53 -17.37,5.58 -26.41,5.58 -24.33,0 -52.5,-14.82 -101.78,-55.35 v 0 c -3.16,46.05 -3.04,102.99 -0.83,162.4 0.31,-6.54 0.41,-13.77 0.83,-19.93 120.58,35.53 410.48,214.62 500.44,404.69 3.89,0.17 7.74,0.25 11.62,0.25 280.33,0 536.22,-436.4 761.67,-514.65 -304.7,22.44 -483.55,372.24 -759.09,372.24 -4.7,0 -9.44,-0.1 -14.2,-0.31 v 0 c -89.96,-190.05 -269.9,-210.02 -280.78,-319.91 -10.87,-109.93 -15.79,-276.27 -15.79,-276.27 0,0 -0.04,0 -0.13,0" style="fill:#21110e;fill-opacity:1;fill-rule:nonzero;stroke:none" id="path64"/>
      <path d="m 1762.47,1800.6 -48.54,-137.97 c 0,0 144.72,-272.51 270.41,-317.81 38.37,-13.85 118.34,163.29 146.22,163.29 13.44,0 121.4,-187.94 137.81,-184.18 128.74,29.36 276.37,336.29 276.37,336.29 l -54.43,126.24 -359.75,-226.42 -368.09,240.56" style="fill:#ffffff;fill-opacity:1;fill-rule:nonzero;stroke:none" id="path66"/>
    </g>
  </g>
</svg>